<svg _ngcontent-ng-c2253205368="" xmlns="http://www.w3.org/2000/svg" version="1.0" viewBox="0 0 320 340"><defs _ngcontent-ng-c2253205368=""><linearGradient _ngcontent-ng-c2253205368="" id="gea-circle-gradient" x1="0%" y1="0%" x2="0%" y2="100%"><stop _ngcontent-ng-c2253205368="" offset="0%" stop-color="#A5D462"/><stop _ngcontent-ng-c2253205368="" offset="100%" stop-color="#56752A"/></linearGradient><linearGradient _ngcontent-ng-c2253205368="" id="gea-petals-bottom-gradient" x1="0%" y1="0%" x2="0%" y2="100%"><stop _ngcontent-ng-c2253205368="" offset="0%" stop-color="#e4fa84"/><stop _ngcontent-ng-c2253205368="" offset="100%" stop-color="#88a506"/></linearGradient><linearGradient _ngcontent-ng-c2253205368="" id="gea-petals-side-gradient" x1="0%" y1="0%" x2="0%" y2="100%"><stop _ngcontent-ng-c2253205368="" offset="0%" stop-color="#e4fa84"/><stop _ngcontent-ng-c2253205368="" offset="100%" stop-color="#88a506"/></linearGradient><linearGradient _ngcontent-ng-c2253205368="" id="gea-petal-center-gradient" x1="0%" y1="0%" x2="0%" y2="100%"><stop _ngcontent-ng-c2253205368="" offset="0%" stop-color="#e4fa84"/><stop _ngcontent-ng-c2253205368="" offset="100%" stop-color="#88a506"/></linearGradient></defs><path _ngcontent-ng-c2253205368="" fill="url(#gea-petals-bottom-gradient)" fill-opacity="0.95" transform="translate(31,188) scale(0.52)" d="M1.3 1.8c-1 .6-.7 2.8 1.3 9.7 6.5 22.4 21 44.1 39.9 59.5 15.4 12.6 35.3 23.8 56 31.5 18.8 7 49.3 13.5 &#10;      63.7 13.5h5.1l-.6-13.8c-.6-15.9-2.6-24.1-8.9-36.9-15.5-31.3-49.5-52-98.1-59.8C36.2 1.7 4.5-.3 1.3 1.8m307.2-.1c-10.5.9-34.1 4.6-43.3 6.8-47.6 &#10;      11.4-77 35.6-87.8 72.2-3.5 11.9-4.7 33.9-1.9 34.9 3.2 1.2 29.5-2.6 45-6.6 18-4.6 29.8-9 46.5-17.7 36.3-18.7 60-44.4 &#10;      70.4-76.4 2-6.1 3.6-11.7 3.6-12.5 0-1.1-2.5-1.4-14.2-1.2-7.9.1-16.1.3-18.3.5"/><path _ngcontent-ng-c2253205368="" fill="url(#gea-petals-side-gradient)" fill-opacity="0.70" transform="translate(59,122) scale(0.50)" d="M218.1 7c-6.7 3.9-15.6 9.3-19.6 12-23.3 15.7-47.7 39.7-59.6 58.7l-2 3.2 6.3 3.2c14.7 7.4 30.4 11.7 46.6 12.7l10.3.7-6.2 4.5c-3.4 2.5-10.1 8.4-14.9 13.2l-8.7 8.8.5 4.8c.6 6.9-1.9 14.6-9.1 28.4-6.8 13.1-5.3 12.3-13.2 7.2l-2.5-1.6-2.9 6.3c-8.6 19.1-16 47.7-18.6 71.9-.9 8.6 0 9 9.1 4.1 10.4-5.6 30.9-19.3 40.9-27.4 11.4-9.1 30.8-29.6 38.7-40.8 31.1-43.7 40.4-99 25.9-154.3-3.3-12.4-6.9-22.6-8-22.6-.4 0-6.3 3.2-13 7M12.7 4.2c-.3 1.3-2.1 8.4-4.1 15.8C-.9 56.1-2.5 92.1 4.1 122.8c9.9 45.7 37.8 84.5 81.4 112.8 10.1 6.6 29.1 16.4 31.7 16.4 2.5 0 3.3-5.8 1.8-14.8-7.9-50.8-23.4-115.5-43.2-181l-6.2-20.4-8-6.3c-4.5-3.4-11.9-8.7-16.6-11.8C35.7 11.7 17 2 14.7 2c-.8 0-1.7 1-2 2.2"/><path _ngcontent-ng-c2253205368="" fill="url(#gea-petal-center-gradient)" fill-opacity="0.85" transform="translate(91,102) scale(0.50)" d="M52.7 6.8C43.3 19 31.5 38.1 23.4 54.4 18.8 63.7 15 72.1 15 73c0 2.2 23.4 25 33.5 32.6 20.3 15.3 42.7 26 62.3 29.7l3.2.6v-6c0-8.1-2.5-25.1-5.6-37-6.6-26.3-19.3-53.1-35.5-75C66.3 9 59.2 1 57.9 1c-.4 0-2.8 2.6-5.2 5.8m11.5 26.4c5.7 1.7 13.1 8.7 15.8 15 4.8 11 2.3 25.4-5.9 33.6-4.6 4.5-8.5 6.3-15 6.9-11 1-20.7-5.8-25.1-17.4-8.1-21.6 9.9-44.2 30.2-38.1m-58 66.5c-9.3 38-7.8 73.5 4.4 110.2 7.6 23 21 47.4 36.3 66.3 8.1 10 8.5 10.3 7.7 4.2-3.4-23.4-12.2-65.7-21.2-102.2-6.8-27.6-22.9-85.1-24.3-86.5-.4-.4-1.7 3.2-2.9 8M109 160.2c-3.1 3.7-3.5 4.6-3.2 8.9.5 6.8-2 14.6-9.1 28.1-6.8 13.1-5.3 12.3-13.2 7.2l-2.5-1.6-2.9 6.3c-8.6 19-15.2 44.7-18.7 71.9-.6 5.1-.5 5.4 1.1 4 4.1-3.4 22.3-32.7 30-48.5 12.2-24.7 18.6-44.6 22-68.7.8-5.7 1.5-10.6 1.5-11.1 0-1.5-1.6-.4-5 3.5"/><path _ngcontent-ng-c2253205368="" fill="#9B1826" transform="translate(123,185) scale(0.40)" d="M26.9 2.9c-1.6 1.6-3.2 4.3-3.5 6-.4 1.7-.9 3.1-1.1 3.1-.3 0-1.9-1-3.6-2.2-2.1-1.5-4.6-2.3-7.5-2.3 &#10;      -3.8 0-4.8.5-7.9 3.9C.2 14.7-.1 15.7.4 18.8c.8 5.5 5.2 10 17.6 18.4 13.3 8.9 11.4 9.3 19-4.8C48.1 11.8 47.1 0 &#10;      34.3 0c-3.6 0-5 .6-7.4 2.9"/><path _ngcontent-ng-c2253205368="" fill="url(#gea-circle-gradient)" transform="translate(40,80) scale(0.50)" d="M248 .6c0 .5 2.2 3.1 4.8 5.9 11.9 12.4 17.9 19.6 24.7 30 &#10;      21.2 31.8 33.5 73.6 33.5 114 0 86.9-55.1 161.2-128.9 173.9&#10;      -5.2.9-12 1.6-15.1 1.6h-5.7l-.7 3.8c-.3 2-.6 5.2-.6 7 &#10;      0 3.2.1 3.2 3.8 2.7 2-.2 7.2-.7 11.5-1 16-1.2 38-8.4 55.1-17.9 &#10;      17.7-9.9 39.6-30.1 52.8-48.6 17.9-25.2 30.6-58.7 34.9-92 &#10;      1.5-11.9 1.5-39.6 0-51.5-5.2-40-20.3-75.4-44.4-104.2C265 14 248-1.7 248 .6&#10;      M61.6 8.2C47.7 20.4 31.5 42.1 22.1 60.9c-24.5 48.8-28.5 108-11 160.3 &#10;      10 30 25 54 47 75.3 27.4 26.4 57.8 40.2 94.7 42.9l6.4.4-.7-6.1&#10;      c-.4-3.4-.9-6.5-1.2-6.9-.2-.5-2.6-.8-5.2-.8-6.8 0-22.2-2.8-31.6-5.7&#10;      -11.5-3.6-28.6-12.1-39-19.4-11.7-8.3-29.2-25.9-37.8-37.9&#10;      -8.8-12.4-20.4-35.7-25-50.1-7-21.6-9.7-39.4-9.7-62.9.1-53&#10;      18.3-101 52.3-137.8C65.6 7.7 69 3.8 69 3.5c0-1.3-2 0-7.4 4.7"/></svg>