<?xml version="1.0" standalone="no"?>
<svg _ngcontent-ng-c2926952079="" width="800" height="800" xmlns="http://www.w3.org/2000/svg" version="1.0" viewBox="0 0 760 760" transform="translate(29,-160) scale(0.25) rotate(-30)" style="overflow: visible;"><defs _ngcontent-ng-c2926952079=""><linearGradient _ngcontent-ng-c2926952079="" id="base-rossetto-gradient" x1="0%" y1="0%" x2="0%" y2="100%"><stop _ngcontent-ng-c2926952079="" offset="0%" stop-color="#bbad68"/><stop _ngcontent-ng-c2926952079="" offset="100%" stop-color="#bbad68"/></linearGradient><linearGradient _ngcontent-ng-c2926952079="" id="base-centrale-nera-gradient" x1="0%" y1="0%" x2="0%" y2="100%"><stop _ngcontent-ng-c2926952079="" offset="0%" stop-color="#070707"/><stop _ngcontent-ng-c2926952079="" offset="100%" stop-color="#070707"/></linearGradient><linearGradient _ngcontent-ng-c2926952079="" id="cilindro-rossetto-gradient" x1="0%" y1="0%" x2="0%" y2="100%"><stop _ngcontent-ng-c2926952079="" offset="0%" stop-color="#f8cb66"/><stop _ngcontent-ng-c2926952079="" offset="100%" stop-color="#f8cb66"/></linearGradient><linearGradient _ngcontent-ng-c2926952079="" id="rossetto-gradient" x1="0%" y1="0%" x2="0%" y2="100%"><stop _ngcontent-ng-c2926952079="" offset="0%" stop-color="#9d030b"/><stop _ngcontent-ng-c2926952079="" offset="100%" stop-color="#9d030b"/></linearGradient><linearGradient _ngcontent-ng-c2926952079="" id="base-pennello-gradient" x1="0%" y1="0%" x2="0%" y2="100%"><stop _ngcontent-ng-c2926952079="" offset="0%" stop-color="#6e2b0c"/><stop _ngcontent-ng-c2926952079="" offset="100%" stop-color="#9a5e3b"/></linearGradient><linearGradient _ngcontent-ng-c2926952079="" id="sopra-base-pennello-gradient" x1="0%" y1="0%" x2="0%" y2="100%"><stop _ngcontent-ng-c2926952079="" offset="0%" stop-color="#e5d995"/><stop _ngcontent-ng-c2926952079="" offset="100%" stop-color="#c4953a"/></linearGradient><linearGradient _ngcontent-ng-c2926952079="" id="base-baffo-pennello-gradient" x1="0%" y1="0%" x2="0%" y2="100%"><stop _ngcontent-ng-c2926952079="" offset="0%" stop-color="#ece8c3"/><stop _ngcontent-ng-c2926952079="" offset="100%" stop-color="#99781f"/></linearGradient><linearGradient _ngcontent-ng-c2926952079="" id="baffo-pennello-gradient" x1="0%" y1="0%" x2="0%" y2="100%"><stop _ngcontent-ng-c2926952079="" offset="0%" stop-color="#adb1b1"/><stop _ngcontent-ng-c2926952079="" offset="100%" stop-color="#0a0a0a"/></linearGradient><linearGradient _ngcontent-ng-c2926952079="" id="cerchio-gradient" x1="0%" y1="0%" x2="0%" y2="100%"><stop _ngcontent-ng-c2926952079="" offset="0%" stop-color="#9d030b"/><stop _ngcontent-ng-c2926952079="" offset="100%" stop-color="#9d030b"/></linearGradient></defs><g _ngcontent-ng-c2926952079="" id="logo-root" transform="translate(200,200) scale(0.40)"><g _ngcontent-ng-c2926952079="" transform="translate(-460,-240) scale(0.50)"><path _ngcontent-ng-c2926952079="" fill="url(#cerchio-gradient)" fill-opacity="0.95" d="M1317.5 9.4c-15.9 2.4-32.8 5.1-37.5 6-18.4 3.8-52.5 12-75.4 18.2-68.9 18.6-112.4 26.6-179.1 32.9-55.6 5.3-68.1 5.3-161-.5-25.8-1.6-52.6-3.2-59.5-3.5-17.5-.9-43.6-4.8-70-10.5-23.9-5.3-43.6-8.6-69.5-12-14.3-1.8-21.5-2-68-2-28.6 0-55.8.5-60.5 1s-20 2.1-34 3.4c-24.9 2.5-26 2.7-46 8.5-11.3 3.3-24.5 7.3-29.5 8.9-24 7.7-56.9 23.2-68.9 32.4-6.2 4.8-7.5 6.4-12.8 16.2l-5.8 10.9v24.5l4.7 10.4c5.3 11.8 14.3 24.9 21.7 31.4 7.5 6.6 17.8 13.2 31.8 20.2 16 8.1 43.7 16.2 63.8 18.7 7.4.9 19.4 2.7 26.6 4.1 12.9 2.4 14.1 2.4 66 2.4 63.2-.1 80.8-.9 95.4-4.5 5.8-1.5 27.4-5.7 48-9.5 40.4-7.4 87.5-18.1 138.5-31.7 52.9-14 100.4-25.1 129.5-30.3 15.1-2.7 35.3-6.5 44.9-8.5 19-3.8 54.7-7.8 85.6-9.5 10.5-.5 52.9-1 94.3-1 71.4 0 75.8.1 83 1.9 16.9 4.3 49.1 11.5 74.6 16.7 54.9 11.1 82.6 19.6 146.1 44.7 52.7 20.8 80.9 35.4 141 73 61.6 38.7 94.3 61.7 118.3 83.4 7.5 6.9 31.2 29.9 52.5 51.1 34.7 34.5 40.5 40.8 54.1 58.2 64.9 83.2 81.9 111 119.5 195.8 7.9 17.8 26.5 71.3 37.1 106.7 22.7 76 30.1 109.6 37.1 167.5 8.2 68.3 7.9 61.9 7.9 156.6 0 67.5-.3 88.1-1.5 99-.7 7.7-2.1 22-3 31.9-.8 9.9-2.7 27.9-4.1 40-2.3 20.4-3 23.8-9.6 47-3.9 13.7-10.1 33.8-13.9 44.5-3.7 10.7-8.9 26.7-11.5 35.5-4.9 16.7-7.6 23.4-26.7 65.5-21.8 48-40.9 82.6-68 123-32.8 48.8-55.1 76.6-95.6 119-49.4 51.6-76.6 76.8-120.1 111.1-47.7 37.6-69.8 51.2-146 89.6-77.2 38.8-102.2 48.6-184.5 72-28.8 8.1-31.6 8.7-70 14.8-22 3.5-52.8 8-68.5 10l-28.5 3.6-62 .7c-73.6.8-111.4-.6-149.1-5.8-12.1-1.6-23.2-3-24.5-3-1.9 0-3.2 1.2-5.6 5.2-1.7 2.9-3.1 5.4-3 5.5.5.5 32.3 4.9 66.8 9.3l39.4 5 69-.6c79-.6 92.2-1.6 140.5-10 65.8-11.5 109.5-21.2 144-31.9 39.8-12.5 95.6-35.1 124.5-50.6 8.3-4.4 23.1-11.8 33-16.3 46.5-21.3 137.8-82.8 184.6-124.3 22.7-20.2 75.6-74.9 95.9-99.3 18-21.7 57-75.4 82.9-114.3 14-21.1 16.8-26.1 36.9-66.5 16.4-33.1 26.4-54.8 40.9-89.2 18.5-43.9 19.4-46.5 27.2-74 8.6-30.7 15-61.3 20.5-97 3.2-20.9 3.5-25.3 4.5-61.5 2.3-81.4 2-145.3-.8-172.6-1.1-10.7-2.7-27.3-3.6-36.9-1.6-18.1-6.4-55.3-11.5-89-5-33.5-26.4-117-40-156.7-2.1-6.1-8.8-22.3-14.8-36-6-13.6-13.7-31.3-17-39.3-8.4-20.2-23.9-51.9-33.5-68.5-4.5-7.7-12.8-20.3-18.6-28s-13.7-19.1-17.6-25.5c-8.1-13.1-50.6-70.2-66.3-89-41.5-49.7-105.3-105.5-171-149.5-68.3-45.8-78.1-51.6-116.2-69-11.3-5.1-29.5-13.7-40.5-19-15.3-7.4-26.1-11.8-46-18.5-14.3-4.9-33.8-11.8-43.2-15.4-9.5-3.6-25.3-8.6-35-11.1-9.8-2.6-27.6-7.6-39.6-11.1-41.8-12.5-57.6-16.1-82-18.8-45.6-5.1-98-6.6-165.7-4.9-28.3.8-58.9 2.1-73.5 3.3-37.4 3.1-85.1 11.5-127.5 22.5-13.5 3.5-36.4 8.7-51 11.5s-48.1 10.2-74.5 16.5C678.4 200.4 640.8 206.9 588 209c-33.6 1.3-52.8.7-85.5-2.6-13.2-1.3-35.5-3-49.5-3.8-24.3-1.3-26.1-1.6-38.4-5.1-11.2-3.2-14.3-4.6-24.7-11.2-11.2-7-12.5-8.2-22.9-20.6l-11-13.2V124l5.1-10.3 5.1-10.3 10.2-6.6c12.9-8.4 37.9-20.3 56.6-26.8 10.8-3.7 22-6.5 43.5-10.9 47.2-9.6 70.7-11.5 125.3-10 56.8 1.4 75 3.2 117.7 11.4 72.6 13.9 135.2 20.3 210 21.2 36.4.5 40.9.3 67-2.1 15.4-1.4 34.1-3 41.5-3.6 16.4-1.3 33.7-4.1 75-12 33.7-6.4 35.8-6.9 101.5-22 34.2-7.9 51.9-11.4 86.5-17 23.9-3.8 44.7-7.2 46.2-7.5 3.2-.5 158 3.1 170.8 4.1 11.5.8 42.3 5.8 55.6 8.9 6 1.4 18.1 4.1 27 6 25 5.3 46.6 11 61.9 16.4 39.9 14 85 32.8 123.7 51.4 31.2 15 92.1 54 124.1 79.4 35.5 28.2 88.8 83.4 122.4 126.9 8.7 11.3 38.8 57.8 48.1 74.4 7.6 13.6 43.6 112.3 46.7 128 .4 1.9 3.1 14.5 6.1 28 5.5 25.3 16.2 87 18.8 109 .8 6.9 2 19.2 2.6 27.5.6 8.2 1.7 19.5 2.5 25s1.7 18.1 2 28c.4 9.9 1.5 26.2 2.6 36.2 1.6 15.3 1.9 25.8 1.9 67 0 48.8-1.5 85.9-6.6 167.3-1.3 21.2-1.6 49-1.8 164.5-.1 151.6.2 163.5 5.8 197.5 4.2 25.5 16.7 70 24.2 86.7 6.4 14.1 20.5 41.5 28.7 55.8 8.5 14.8 30.8 44.4 44.2 58.5 3.9 4.1 14.3 15.5 23 25.4 16.1 18.1 22.5 23.9 25.1 22.9 2.8-1 1.4-5.2-3.8-11.5-5.8-7.1-18.8-21.6-29.3-32.8-9.3-9.9-21.1-24.7-31.6-39.5-11.7-16.5-14-20.4-20.4-33.8-3-6.5-8.8-17.9-12.9-25.5-11.3-20.8-34.7-86.3-37.9-106.2-2.3-14-3.3-328.1-1.1-347.7.7-7 1.7-27.7 2-45.8.3-19.3 1.4-41.9 2.5-54.4 1.6-18.1 1.9-30.4 1.9-78.2 0-55.5-.1-57.1-2.5-72.6-2-12.8-2.5-19.5-2.5-35.1 0-11.4-.6-23.2-1.4-29-.8-5.3-2-16.7-2.6-25.2-2.7-38-11.9-91.8-21.9-128.5-1.6-6.1-5.9-23.2-9.5-38-6.6-27.4-12-43.2-22.6-66-2.3-5-6.4-14.6-9.2-21.5-11.7-28.8-30.8-65.8-43.6-84.5-4.2-6.1-12.1-16.9-17.7-24-5.6-7.2-14.4-18.6-19.5-25.5-15.8-21-51.7-60.6-72.6-80.1-10.4-9.7-20.5-19-22.4-20.6-3.9-3.4-55.6-40-72.1-51-51.8-34.8-98.8-57.4-174.4-84.1-7.7-2.8-17.6-6.4-22-8.2-23.9-9.6-36.3-13-69.5-18.5-8.5-1.5-20-3.7-25.5-5s-22.6-4.8-38-7.8l-28-5.5-76-.5-76-.5z&#10;          &#10;          M440.4 464c-28.2 10.9-56.9 35.4-83.7 71.6-45.3 61.1-58.6 83-80.4 131.9-22.4 50.4-25.6 58.3-35.4 86.7-13.6 39.7-22.1 70.9-26.9 99.2-2.3 13.1-3.9 24-3.7 24.3.3.2 4-3.8 8.3-8.9s8.4-10.1 9.2-11 2.4-5.3 3.7-9.7c1.3-4.5 3.9-11.6 5.8-15.8 2.3-5.2 4.9-14.3 7.7-27.3 6.7-31.3 10.5-45.5 19.9-73.8 12.1-36.4 20.7-58.2 29.2-74.2 4-7.4 10.2-19.6 13.8-27s10.4-19.2 15.3-26.2c10.3-15 20.9-31.3 29.8-45.8 3.5-5.8 10.5-15.7 15.6-22 12.7-15.9 40.5-42.9 52.6-51.3l9.7-6.7H441c7.6 0 12.7.7 20.8 2.7 19.5 4.9 32.6 14.9 44.8 34.7l5.5 8.8 1.1 12.4c1.7 18.4-.2 48.5-4.2 66.7-3.7 17.4-7.8 25.2-23.1 44.4-22.2 27.6-34.9 40-62.4 60.7-7.7 5.8-17.4 13.1-21.6 16.3s-15.9 10.9-26 17.1c-32.4 19.9-65.6 44.5-94.9 70.1-40.2 35.4-46.8 42.4-50 53.7-1.1 3.7-1.8 6.9-1.6 7.1.1.2 3.1-2.9 6.6-6.8s13.1-12.7 21.4-19.7c8.3-6.9 21.6-18.8 29.6-26.3s19.7-17.7 26-22.5c12.7-9.7 75.1-51.2 103.7-69 25.1-15.6 49.5-33.6 64.1-47.2 11.3-10.7 13-12.7 23.1-28.6 19.8-31.3 24.3-40 30-59 4.7-15.6 5.2-18.2 6.2-33l1.1-16.1-3.5-18-3.6-18-7.3-13.3c-7.1-13-7.5-13.5-17.5-21.7l-10.1-8.5-11.6-2.5c-9.1-2-14.3-2.5-24.3-2.5-12.4.1-13.1.2-22.9 4&#10;&#10;          M225 867.6c0 .5-3.8 5.1-8.4 10.3-6.9 7.6-8.6 10.1-9.1 13.5-.4 2.2-.9 5-1.1 6.1-.5 2 4.4-2.9 12.2-12.2 3.2-3.8 8.2-16.9 6.9-18.2-.3-.2-.5 0-.5.5m-13.2 32.1c-4.3 4.7-7 8.7-7.3 10.7-.3 1.7-2.1 15.5-4 30.6-5.3 42.6-6.8 74.2-6.2 132.4l.5 49.1 4.5 45.6c4.8 47.5 6.3 57 15.8 99.9 13.8 62.3 27.3 108.6 41.3 142.3 15.9 38.1 27 62.6 41.2 90.9 26.7 53.5 49.2 89.1 85.1 135 8.7 11.1 22.3 28.6 30 38.8 11.8 15.4 17.9 22.2 36.5 40.5 47.2 46.7 80.8 77.5 108.2 99.5 22.3 17.8 79.3 56.2 119.1 80 45 27 79 42 163 72.4 16 5.7 30 9.8 59 17 46.5 11.6 51.5 12.7 52.5 12.1.4-.3 1.5-2.5 2.3-4.9 1.5-4.3 1.5-4.4-.6-5-1.2-.3-3.2-.6-4.5-.6-1.2 0-13.4-3.6-27-8.1-13.6-4.4-40.9-12.9-60.7-18.9-30.3-9.2-42.7-13.6-78.5-27.8-39.9-15.9-44.8-18.1-79.5-36.3-32-16.7-41.4-22.1-70-40.7-31.1-20.3-35.2-23.3-71.5-53.1-62.7-51.3-69.3-57.3-103.9-94.7-16.8-18.1-38.1-42.2-47.2-53.5-15.3-18.8-17.9-22.7-33.6-49.4-10.3-17.7-21.7-35.5-29-45.5-20.6-28.3-46.9-81.3-79.5-160-10.5-25.2-15-37.6-20.1-55-8.8-30-29.4-112.5-35.7-142.9-5.7-27.3-5.2-19.4-7.1-98.6-1-40.9-.9-45.8 1-69.5 1.1-14 2.5-33.2 3.1-42.5 1.6-25.1 7.9-90.5 9-93.9.6-1.6.9-3 .7-3.2-.1-.1-3.3 3.1-6.9 7.3&#10;&#10;          M197.9 898.7c-2 2.1-8 9.2-13.5 15.8-5.4 6.6-14.5 17.4-20.2 24-28.4 32.8-65.6 90.7-84.6 131.8-28 60.5-57.6 149.7-65.1 196.2-1.5 8.8-4.2 24.8-6.1 35.5L5 1321.4v60.1c0 65.3.3 70.5 6 101.4 1.6 9 5 23.8 7.4 33 2.5 9.1 6.8 25.4 9.6 36.1 7.4 28.3 20.1 59.9 36.1 90.1 11.4 21.4 40.2 68.8 51.3 84.4 5.1 7.1 13.5 19.5 18.6 27.5 5.2 8 16 23.6 23.9 34.8 11.3 15.8 16.9 22.6 24.9 30.4 5.7 5.5 13.4 13.4 17 17.6 10 11.6 51.7 54.3 65 66.5 6.4 6 17.3 15.5 24.2 21 6.9 5.6 18.6 15.3 26 21.7 49.4 42 96.4 72.7 164.4 107.5 15.5 7.9 36.2 17.6 46.1 21.5 32.7 13.1 71.1 24.2 104.5 30.4l19.5 3.6h50.1c60.5 0 63.6-.3 96.4-10.5 39.6-12.3 64.9-22.2 88-34.6 11.3-6.1 23.7-13.2 27.5-15.6 9.5-6.1 33.5-25.4 36.1-29 1.1-1.5 4.1-5.8 6.7-9.4l4.7-6.7-2.5-.5c-2.1-.4-2.8.1-3.8 2.4-1.9 4.4-24.1 22.6-39.9 32.6-41.8 26.5-111.2 53.3-157.8 60.9-13.6 2.3-16.9 2.4-57 2.4h-42.5l-29.8-6c-16.4-3.3-30.5-6-31.3-6-.9 0-13.6-4.7-28.2-10.4-14.7-5.7-39-15-54-20.5-36.9-13.6-64.2-27.9-96.6-50.6-12.2-8.5-26.6-19.6-32.1-24.6-24.5-22.5-50.4-45.3-67.5-59.4-25.6-21.2-86-82.2-112.9-114-11-12.9-21.5-26.8-66.9-88-4-5.5-18.6-27.8-32.4-49.5-22-34.8-25.9-41.5-32.5-56.5-4.1-9.4-12.4-27.9-18.4-41.1L42 1550.2l-8-34.3c-6.3-26.8-8.7-39.4-10.9-56.9-2.8-21.4-2.9-23.5-2.1-43 .5-11.3.9-36.3.9-55.7.1-25.1.7-43.5 2.2-64l2-28.8 9.9-41 9.9-41 10-20.8c5.6-11.4 16.9-37.3 25.1-57.6 12.2-29.9 16.9-40.3 25.3-55.2 5.6-10.2 14.4-27.2 19.5-37.9 9.1-19 9.9-20.4 36.4-57.5 14.9-20.9 29.6-40.9 32.8-44.5 4.9-5.6 5.9-7.2 6.5-11.8.4-2.8.5-5.2.3-5.2s-2 1.7-3.9 3.7&#10;&#10;&#10;          "/></g><g _ngcontent-ng-c2926952079="" transform="translate(-90,-10) scale(0.22) rotate(30)"><path _ngcontent-ng-c2926952079="" fill="url(#base-pennello-gradient)" fill-opacity="0.95" d="m1086.5 211.8-123 211.7-137.7 223.7-137.7 223.7-111.3 171.3C400.2 1314 264.1 1513 124 1704.5c-33.4 45.6-96.5 134.7-99.4 140.3-.7 1.5-3.4 7.7-6 13.8-2.5 6.1-7.7 17.1-11.6 24.5l-7 13.3v77.2l5.9 17.4c3.2 9.6 9.3 25 13.5 34.3 7.1 15.6 8.4 17.7 19.7 32 6.7 8.3 20.9 24.8 31.7 36.6 22.8 24.8 25.3 26.7 76 59.5 51.1 33.1 76 44.2 125.6 55.7l20.9 4.9h90.6l22.3-10.5 22.3-10.6 24.4-19.9c23.9-19.6 24.7-20.4 39-38 11.9-14.7 16.6-21.3 25.4-36.7 9.7-16.9 11.9-21.5 21.3-46.7 10.8-28.7 28.3-70.5 51.2-122.6 7.1-16.2 17.8-40.8 23.7-54.5 27.2-63.1 58.8-128.9 288.5-601.1l244.8-503 172.6-306.8c95-168.8 172.6-306.9 172.4-307.1-1.5-1-279.7-155.5-280.8-155.9s-32.8 53.3-124.5 211.2"/></g><g _ngcontent-ng-c2926952079="" transform="translate(165,75) scale(0.22) rotate(30)"><path _ngcontent-ng-c2926952079="" fill="url(#sopra-base-pennello-gradient)" fill-opacity="0.95" d="M121.2 12.9c-4.7 12-5.1 13.8-6.2 26.7-1.4 18-5.2 30.2-11.9 38.8-3.8 4.9-5.9 6.5-12.6 9.7-11.1 5.2-18.5 12.8-26.8 27.2-7.2 12.4-8.3 16.5-11.3 41.6l-1.6 13.5-5.6 6.8c-3.8 4.8-7.1 7.7-10.6 9.5-5.2 2.6-17 11.8-21.8 16.9C9.9 206.9-.4 231 .7 232c1.4 1.2 280.6 163.5 281.8 163.8.7.2 6-7.9 11.9-17.8l10.6-18.1v-25l7-10.4c5.7-8.5 8.3-11.4 13.8-15.2 11-7.9 27.1-25.3 32.5-35.5l4.7-8.6V224l4.2-6.4c2.5-3.8 6-7.5 8.5-9.1 10.7-6.7 28.4-20.5 32.7-25.3 4.3-4.9 4.7-5.8 4.4-9.8l-.3-4.5L270 84.5C191.6 38 127.2 0 126.8 0c-.3 0-2.9 5.8-5.6 12.9"/></g><g _ngcontent-ng-c2926952079="" transform="translate(227,23) scale(0.22) rotate(30)"><path _ngcontent-ng-c2926952079="" fill="url(#base-baffo-pennello-gradient)" fill-opacity="0.95" d="M116.6 13.2C103.3 51.3.1 352.4.3 352.6c1.8 1.6 285.6 162.8 286.8 162.8 1.6.1 231.4-290.5 231.4-292.6C518.5 221.8 123.7 0 122 0c-.4 0-2.8 6-5.4 13.2"/></g><g _ngcontent-ng-c2926952079="" transform="translate(310,-64) scale(0.22) rotate(30)"><path _ngcontent-ng-c2926952079="" fill="url(#baffo-pennello-gradient)" fill-opacity="0.95" d="M175.5 2.5c-34.2 5.1-62 13-85.2 24-9.3 4.4-13.7 7.3-22.7 14.9C44.9 60.6 36.2 71.8 23 98l-5.1 10.2 1.8 121 1.7 121-2.2 38.6c-3.3 58.7-6.1 84-12.7 115.6-3 14.5-5.5 27.2-5.5 28.2.1 1.5 46.1 27.8 193.1 110.4 106.2 59.7 193.5 108.6 194 108.8s6.2-4.6 12.6-10.6c14.2-13.3 29-24.8 52.3-40.9 28.7-19.8 73.1-46.7 109.5-66.3 11.6-6.2 30.7-17 42.5-24s29.4-17.1 39-22.5c23.7-13.2 46.3-27.6 65.4-41.4 13.4-9.8 17.8-13.6 27.5-24.4 15.7-17.4 24-31.6 32.6-55.7 3.4-9.6 7-19.2 7.9-21.4 1.3-3.2 1.6-8 1.6-28.1v-24.2l-5.4-22.9c-5-21.1-6.1-24.2-12.9-38.9-4.9-10.7-12.7-24.5-23.2-41.5-15.7-25.2-16.2-25.8-37.5-49.5-38.8-43.4-83.6-83-123.5-109.3-68.9-45.5-81.2-52.8-127-76-27.4-13.8-64.7-27.6-98-36.2-8.8-2.3-22.3-6.2-30-8.6-7.7-2.5-19.3-5.6-25.9-7C284 0 282.8 0 237.1.1c-42.9.1-47.8.3-61.6 2.4"/></g><g _ngcontent-ng-c2926952079="" transform="translate(45,600) scale(0.22) rotate(-40)"><path _ngcontent-ng-c2926952079="" fill="url(#base-rossetto-gradient)" fill-opacity="0.95" d="M196 175 .5 349.9l-.3 18.5-.2 18.5 165.6 186.3 165.7 186.3 17.2.3 17.2.2 196.6-173.2C670.5 491.5 759 413.1 759.1 412.7 759.1 412 392.2-.1 391.7 0c-.1 0-88.2 78.8-195.7 175"/></g><g _ngcontent-ng-c2926952079="" transform="translate(100,529) scale(0.22) rotate(-40)"><path _ngcontent-ng-c2926952079="" fill="url(#base-centrale-nera-gradient)" fill-opacity="0.95" d="M124 32.5C103.9 49.8 87.3 64 87 64s-4.2-4.7-8.8-10.5-8.7-10.5-9-10.4C67.6 43.3.5 100.7.9 101.5c.4.9 341.6 384 347.6 390.3l2.2 2.3 30.9-28.6c17-15.7 31.3-29.2 31.8-29.9.6-.9-2-4-8.8-10.6-5.3-5.1-9.6-9.6-9.6-10s14.4-14.2 32-30.6l32.1-29.9-.3-8.2-.3-8.2-147.9-168.6C229.2 76.8 162.1 1 161.6 1.1c-.6 0-17.5 14.2-37.6 31.4"/></g><g _ngcontent-ng-c2926952079="" transform="translate(57,416) scale(0.22) rotate(-40)"><path _ngcontent-ng-c2926952079="" fill="url(#cilindro-rossetto-gradient)" fill-opacity="0.95" d="M309.8 273.4C140.5 423.1 1.6 546 1 546.6c-.8.8 36.6 43.2 131.4 148.8 72.9 81.2 132.8 147.8 133.2 147.9 1.2.4 615.3-546.8 615.1-548-.3-2-260.7-294.3-262-294.2-.7 0-139.7 122.6-308.9 272.3"/></g><g _ngcontent-ng-c2926952079="" transform="translate(120,270) scale(0.22) rotate(-40)"><path _ngcontent-ng-c2926952079="" fill="url(#rossetto-gradient)" fill-opacity="0.95" d="M480.8 5c-40 8.1-70.8 16.3-85.5 22.6-7 3.1-18.3 7.8-25.1 10.5-27.2 10.9-49.1 29-225.4 186L0 353.1l20.3 22.7c16.1 18 189.1 212.4 191.7 215.5.3.4 73.1-63.1 161.6-141.1 153.9-135.7 162.8-143.8 205.7-185.7 39.8-38.9 46.8-46.2 62.1-64.9 18.4-22.5 39.5-49.7 41.4-53.3.7-1.2 5-11.5 9.7-22.8l8.5-20.7V86.7l.1-16.2-4.3-10.6c-4.7-11.9-3.3-10.5-28.3-27.5-19.7-13.4-25-15.2-81-27.4l-23-5-30 .1h-30z"/></g></g></svg>