<svg xmlns="http://www.w3.org/2000/svg" viewBox="0 0 24 24" fill="currentColor">
  <path d="M12 0c-6.626 0-12 5.373-12 12 0 5.302 3.438 9.879 8.207 11.419.75.144 1.025-.323 1.025-.719 0-.352-.014-1.286-.028-2.511-3.338.724-4.042-1.61-4.042-1.61-.546-1.387-1.333-1.756-1.333-1.756-1.089-.745.083-.729.083-.729 1.205.084 1.838 1.236 1.838 1.236 1.07 1.835 2.809 1.305 3.492.998.108-.776.418-1.305.762-1.605-2.665-.304-5.467-1.334-5.467-5.931 0-1.311.469-2.381 1.236-3.221-.124-.303-.535-1.523.117-3.176 0 0 1.008-.322 3.301 1.23.957-.266 1.983-.399 3.003-.404 1.02.005 2.046.138 3.003.404 2.292-1.552 3.3-.322 3.3-.322.651 1.653.24 2.873.118 3.176.77.84 1.235 1.911 1.235 3.221 0 4.609-2.807 5.624-5.479 5.921.43.372.823 1.102.823 2.222 0 1.606-.015 2.895-.015 3.284 0 .398.273.869 1.035.717C20.565 22.092 24 17.519 24 12 24 5.373 18.627 0 12 0z"/>
</svg>
