<svg xmlns="http://www.w3.org/2000/svg" viewBox="0 0 24 24" fill="currentColor">
  <path d="M12 2.163c3.204 0 3.584.012 4.85.07 1.17.055 1.805.249 2.227.415.562.217.96.477 1.382.899.422.422.682.82.899 1.382.166.422.36 1.057.415 2.227.058 1.266.07 1.646.07 4.85s-.012 3.584-.07 4.85c-.055 1.17-.249 1.805-.415 2.227-.217.562-.477.96-.899 1.382-.422.422-.82.682-1.382.899-.422.166-1.057.36-2.227.415-1.266.058-1.646.07-4.85.07s-3.584-.012-4.85-.07c-1.17-.055-1.805-.249-2.227-.415-.562-.217-.96-.477-1.382-.899-.422-.422-.682-.82-.899-1.382-.166-.422-.36-1.057-.415-2.227-.058-1.266-.07-1.646-.07-4.85s.012-3.584.07-4.85c.055-1.17.249-1.805.415-2.227.217-.562.477-.96.899-1.382.422-.422.82-.682 1.382-.899.422-.166 1.057-.36 2.227-.415 1.266-.058 1.646-.07 4.85-.07zm0 2.163c-3.102 0-3.484.01-4.717.067-1.087.051-1.49.217-1.787.33-.483.18-.838.398-1.15.71-.312.312-.53.667-.71 1.15-.113.297-.28.7-.33 1.787-.057 1.233-.067 1.615-.067 4.717s.01 3.484.067 4.717c.051 1.087.217 1.49.33 1.787.18.483.398.838.71 1.15.312.312.667.53 1.15.71.297.113.7.28 1.787.33 1.233.057 1.615.067 4.717.067s3.484-.01 4.717-.067c1.087-.051 1.49-.217 1.787-.33.483-.18.838-.398 1.15-.71.312-.312.53-.667.71-1.15.113-.297.28-.7.33-1.787.057-1.233.067-1.615.067-4.717s-.01-3.484-.067-4.717c-.051-1.087-.217-1.49-.33-1.787-.18-.483-.398-.838-.71-1.15-.312-.312-.667-.53-1.15-.71-.297-.113-.7-.28-1.787-.33-1.233-.057-1.615-.067-4.717-.067zm0 2.917c2.114 0 3.833 1.719 3.833 3.833s-1.719 3.833-3.833 3.833-3.833-1.719-3.833-3.833 1.719-3.833 3.833-3.833zm0 2.163c-.966 0-1.75 1.119-1.75 2.5s.784 2.5 1.75 2.5 1.75-1.119 1.75-2.5-.784-2.5-1.75-2.5zm6.5-.833c0 .753-.607 1.36-1.36 1.36s-1.36-.607-1.36-1.36.607-1.36 1.36-1.36 1.36.607 1.36 1.36z"/>
</svg>
