<svg xmlns="http://www.w3.org/2000/svg" viewBox="0 0 24 24" fill="currentColor">
  <path d="M4.98 3.5c0 1.381-1.11 2.5-2.48 2.5s-2.48-1.119-2.48-2.5c0-1.38 1.11-2.5 2.48-2.5s2.48 1.12 2.48 2.5zm.02 6.5h-2.5v14h2.5v-14zm7.982 0h-2.5v14h2.5v-14zm-1.285-6.5c-1.382 0-2.5 1.118-2.5 2.5s1.118 2.5 2.5 2.5 2.5-1.118 2.5-2.5c0-1.382-1.118-2.5-2.5-2.5zm-1.285 6.5h2.5v14h-2.5v-14zm10.285 0h-2.5v14h2.5v-14zm-1.285-6.5c-1.382 0-2.5 1.118-2.5 2.5s1.118 2.5 2.5 2.5 2.5-1.118 2.5-2.5c0-1.382-1.118-2.5-2.5-2.5zm-1.285 6.5h2.5v14h-2.5v-14z"/>
  <path d="M20.447 20.452h-3.596v-5.607c0-1.335-.024-3.054-1.852-3.054-1.853 0-2.136 1.445-2.136 2.959v5.702h-3.591v-14h3.454v1.595h.045c.484-.927 1.66-.054 3.403-.054 3.637 0 4.315 2.37 4.315 5.466v6.303zM0 0h24v24h-24z" fill="none"/>
</svg>
