<svg xmlns="http://www.w3.org/2000/svg" viewBox="0 0 24 24" fill="currentColor">
  <path d="M.057 24l1.687-6.163c-1.041-1.804-1.6-3.803-1.6-5.842 0-6.556 5.338-11.895 11.893-11.895 3.181 0 6.14.897 8.688 2.432 2.087 1.237 3.662 3.023 4.321 5.056l.001.006c.075.224.116.462.116.703 0 .001 0 .001 0 .002 0 .001 0 .001 0 .002v.002c0 .24-.04.478-.115.702l-.001.006c-.659 2.033-2.234 3.819-4.321 5.056-2.548 1.535-5.507 2.432-8.688 2.432-2.039 0-4.038-.559-5.842-1.6l-6.163 1.687zm6.54-4.286l-.492-.266c-1.423.795-3.131.928-4.664.365l-1.056.335.34-1.071c-.563-1.533-.43-3.242.365-4.664l.266-.492-1.635-1.635 1.635-1.635.492.266c1.423-.795 3.131-.928 4.664-.365l1.056-.335-.34 1.071c.563 1.533.43 3.242-.365 4.664l-.266.492 1.635 1.635-1.635 1.635zm-2.03-3.262c.748.748 1.742 1.122 2.736 1.122s1.988-.374 2.736-1.122c.748-.748 1.122-1.742 1.122-2.736s-.374-1.988-1.122-2.736c-.748-.748-1.742-1.122-2.736-1.122s-1.988.374-2.736 1.122c-.748.748-1.122 1.742-1.122 2.736s.374 1.988 1.122 2.736z"/>
</svg>
